<svg width="48" height="48" viewBox="0 0 48 48" fill="none" xmlns="http://www.w3.org/2000/svg">
<path d="M13.8954 23.6337C13.8954 21.7533 14.3591 20.1455 15.2864 18.8101C16.2136 17.4747 17.4818 16.4664 19.0909 15.7851C20.5636 15.1583 22.3773 14.7086 24.5318 14.4361C25.2682 14.3544 26.4682 14.2453 28.1318 14.1091V13.4142C28.1318 11.67 27.9409 10.4982 27.5591 9.89863C26.9864 9.08106 26.0864 8.67228 24.8591 8.67228H24.5318C23.6318 8.75404 22.8545 9.04018 22.2 9.53072C21.5454 10.0213 21.1227 10.7026 20.9318 11.5746C20.8227 12.1197 20.55 12.4331 20.1136 12.5148L15.4091 11.9425C14.9454 11.8335 14.7136 11.5882 14.7136 11.2067C14.7136 11.125 14.7273 11.0296 14.7545 10.9206C15.2182 8.49515 16.3568 6.69651 18.1704 5.52466C19.9841 4.3528 22.1045 3.69875 24.5318 3.5625H25.5545C28.6636 3.5625 31.0909 4.36645 32.8364 5.97432C33.1101 6.24808 33.3631 6.54185 33.5932 6.8532C33.825 7.16661 34.0091 7.44593 34.1454 7.6912C34.2818 7.93647 34.4045 8.29076 34.5136 8.75404C34.6227 9.21731 34.7045 9.53755 34.7591 9.71467C34.8136 9.8918 34.8545 10.2734 34.8818 10.8593C34.9091 11.4452 34.9227 11.7926 34.9227 11.9017V21.7942C34.9227 22.5027 35.025 23.15 35.2295 23.7359C35.4341 24.3218 35.6318 24.7443 35.8227 25.0031C36.0136 25.262 36.3273 25.6776 36.7636 26.2499C36.9273 26.4952 37.0091 26.7132 37.0091 26.904C37.0091 27.122 36.9 27.3128 36.6818 27.4763C34.4181 29.4384 33.1909 30.5013 33 30.6648C32.6727 30.91 32.2773 30.9373 31.8136 30.7465C31.4318 30.4195 31.0977 30.1061 30.8114 29.8063C30.525 29.5066 30.3204 29.2885 30.1977 29.1523C30.075 29.016 29.8772 28.7503 29.6045 28.3552C29.3318 27.96 29.1409 27.6943 29.0318 27.558C27.5045 29.2204 26.0045 30.256 24.5318 30.6648C23.6045 30.9373 22.4591 31.0736 21.0954 31.0736C18.9954 31.0736 17.2704 30.4263 15.9204 29.1318C14.5704 27.8373 13.8954 26.0047 13.8954 23.6337ZM20.9318 22.8161C20.9318 23.879 21.1977 24.7306 21.7295 25.371C22.2614 26.0115 22.9773 26.3317 23.8773 26.3317C23.9591 26.3317 24.075 26.3181 24.225 26.2908C24.375 26.2635 24.4772 26.2499 24.5318 26.2499C25.6773 25.9502 26.5636 25.2144 27.1909 24.0425C27.4909 23.5247 27.7159 22.9592 27.8659 22.346C28.0159 21.7329 28.0977 21.2355 28.1114 20.854C28.125 20.4725 28.1318 19.8456 28.1318 18.9736V17.9516C26.55 17.9516 25.35 18.0607 24.5318 18.2787C22.1318 18.96 20.9318 20.4725 20.9318 22.8161Z" fill="white"/>
<path d="M2.23636 35.2432C1.93634 35.0524 1.71817 35.066 1.58182 35.284C1.52725 35.3658 1.5 35.4475 1.5 35.5293C1.5 35.6655 1.58182 35.8018 1.74545 35.9381C4.74544 38.636 8.1409 40.7277 11.9318 42.2129C15.7227 43.6981 19.7455 44.4408 24 44.4408C26.7545 44.4408 29.5773 44.0592 32.4682 43.2962C35.3591 42.5331 37.9772 41.4566 40.3227 40.0668C41.0863 39.6035 41.7136 39.1947 42.2045 38.8404C42.5864 38.5679 42.6613 38.2681 42.4296 37.9411C42.1977 37.6141 41.8773 37.5323 41.4682 37.6958C41.3591 37.7503 41.175 37.8321 40.9159 37.9411C40.6568 38.0501 40.4591 38.1319 40.3227 38.1864C35.1136 40.1758 29.8363 41.1705 24.4909 41.1705C16.4727 41.1705 9.05452 39.1947 2.23636 35.2432Z" fill="#FF9A00"/>
<path d="M38.3591 35.6519C38.25 35.761 38.1682 35.8699 38.1136 35.979C38.0864 36.0335 38.0727 36.0743 38.0727 36.1016C38.0454 36.1561 38.0591 36.2106 38.1136 36.2651C38.1682 36.3196 38.2773 36.3469 38.4409 36.3469C39.0136 36.2651 39.6409 36.1834 40.3227 36.1016C40.95 36.0471 41.4954 36.0198 41.9591 36.0198C43.2136 36.0198 43.9773 36.1834 44.25 36.5104C44.3591 36.6466 44.4136 36.8647 44.4136 37.1644C44.4136 38.091 43.9091 39.7398 42.9 42.1107C42.8182 42.3287 42.8591 42.4786 43.0227 42.5604C43.0773 42.5876 43.1318 42.6012 43.1864 42.6012C43.2954 42.6012 43.4182 42.5467 43.5546 42.4377C44.4818 41.6474 45.2045 40.605 45.7227 39.3105C46.2409 38.016 46.5 36.8919 46.5 35.9381V35.6519C46.5 35.3249 46.4454 35.0796 46.3364 34.9161C46.0909 34.6164 45.3545 34.412 44.1273 34.3029C43.8818 34.2485 43.6227 34.2348 43.35 34.2621C42.3682 34.2893 41.3591 34.4392 40.3227 34.7117C39.6954 34.8752 39.0409 35.1887 38.3591 35.6519Z" fill="#FF9A00"/>
</svg>
