<svg width="34" height="40" viewBox="0 0 34 40" fill="none" xmlns="http://www.w3.org/2000/svg">
<path d="M29.1944 2.99999C27.4174 0.999996 24.1171 0 19.5475 0H6.85433C6.09274 0 5.33115 0.749995 5.07728 1.49999L0 34.2499C0 35 0.507728 35.5 1.01546 35.5H8.88523L10.9162 23.25V23.75C11.17 22.9999 11.9316 22.25 12.6932 22.25H16.5012C23.8632 22.25 29.4483 19.25 31.2253 11C31.2253 10.75 31.2253 10.5 31.2253 10.25C30.9714 10.25 30.9714 10.25 31.2253 10.25C31.4791 6.99999 30.9714 5 29.1944 2.99999Z" fill="white"/>
<path opacity="0.5" d="M30.9695 10.2501C30.9695 10.5001 30.9695 10.7501 30.9695 11.0001C29.1925 19.5002 23.6076 22.2501 16.2455 22.2501H12.4375C11.6759 22.2501 10.9143 23.0001 10.6605 23.7502L8.12183 39.0001C8.12183 39.5001 8.3757 40.0001 9.13729 40.0001H15.7377C16.4994 40.0001 17.2609 39.5001 17.2609 38.7501V38.5L18.5302 30.7501V30.2501C18.5302 29.5 19.2919 29 20.0534 29H21.0689C27.4155 29 32.4928 26.5001 33.7622 19.0002C34.2698 16.0001 34.016 13.2501 32.4928 11.5001C32.239 11.0001 31.7312 10.5001 30.9695 10.2501Z" fill="white"/>
<path d="M29.1951 9.49963C28.9413 9.49963 28.6873 9.24964 28.4335 9.24964C28.1796 9.24964 27.9258 9.24964 27.6719 8.99964C26.6564 8.74963 25.6409 8.74963 24.3716 8.74963H14.471C14.2171 8.74963 13.9632 8.74963 13.7094 8.99964C13.2016 9.24964 12.9478 9.74964 12.9478 10.2496L10.9169 23.2497V23.7497C11.1707 22.9996 11.9323 22.2497 12.6939 22.2497H16.502C23.8639 22.2497 29.4489 19.2496 31.226 10.9996C31.226 10.7496 31.226 10.4996 31.4798 10.2496C30.9721 9.99964 30.7183 9.74964 30.2105 9.74964C29.4489 9.49963 29.4489 9.49963 29.1951 9.49963Z" fill="white"/>
</svg>
