<svg width="126" height="31" viewBox="0 0 126 31" fill="none" xmlns="http://www.w3.org/2000/svg">
<path d="M33.0748 9H45.8181V11.3642H40.8074V24.6545H38.0521V11.3642H33.0637V9H33.0748H33.0748ZM45.2737 13.3196H47.629V15.5071H47.6734C47.7512 15.1977 47.8956 14.8994 48.1067 14.6122C48.3178 14.325 48.5734 14.0488 48.8733 13.8168C49.1733 13.5737 49.5066 13.3859 49.8732 13.2312C50.2399 13.0876 50.6176 13.0103 50.9954 13.0103C51.2842 13.0103 51.4953 13.0213 51.6064 13.0324C51.7175 13.0434 51.8286 13.0655 51.9508 13.0766V15.485C51.7731 15.4518 51.5953 15.4297 51.4064 15.4076C51.2176 15.3855 51.0398 15.3745 50.862 15.3745C50.4399 15.3745 50.0399 15.4629 49.6622 15.6286C49.2844 15.7943 48.9622 16.0484 48.6845 16.3688C48.4067 16.7002 48.1845 17.0979 48.0179 17.584C47.8512 18.0701 47.7734 18.6225 47.7734 19.2522V24.6435H45.2626V13.3196H45.2737V13.3196ZM63.4942 24.6545H61.0278V23.0747H60.9833C60.6723 23.6492 60.2167 24.1021 59.6057 24.4446C58.9946 24.7871 58.3725 24.9638 57.7392 24.9638C56.2393 24.9638 55.1505 24.5993 54.4839 23.8591C53.8173 23.1189 53.484 22.0031 53.484 20.5116V13.3196H55.9949V20.2686C55.9949 21.2629 56.1838 21.9699 56.5726 22.3787C56.9504 22.7875 57.4948 22.9974 58.1836 22.9974C58.7169 22.9974 59.1502 22.92 59.5057 22.7543C59.8612 22.5886 60.1501 22.3787 60.3612 22.1025C60.5834 21.8374 60.7389 21.5059 60.8389 21.1303C60.9389 20.7547 60.9833 20.3459 60.9833 19.904V13.3307H63.4942V24.6545V24.6545ZM67.7716 21.0198C67.8494 21.749 68.1271 22.2572 68.6049 22.5555C69.0937 22.8427 69.6714 22.9974 70.3492 22.9974C70.5825 22.9974 70.8491 22.9753 71.1491 22.9421C71.4491 22.909 71.7379 22.8317 71.9935 22.7322C72.2601 22.6328 72.4712 22.4781 72.649 22.2793C72.8156 22.0804 72.8934 21.8263 72.8823 21.5059C72.8712 21.1856 72.7489 20.9204 72.5267 20.7216C72.3045 20.5116 72.0268 20.357 71.6824 20.2244C71.338 20.1029 70.9491 19.9924 70.5047 19.904C70.0603 19.8156 69.6159 19.7162 69.1604 19.6168C68.6938 19.5174 68.2382 19.3848 67.805 19.2412C67.3717 19.0975 66.9828 18.8987 66.6384 18.6446C66.294 18.4015 66.0162 18.0812 65.8162 17.6945C65.6052 17.3078 65.5052 16.8328 65.5052 16.2583C65.5052 15.6396 65.6607 15.1314 65.9607 14.7116C66.2606 14.2918 66.6495 13.9604 67.105 13.7063C67.5716 13.4522 68.0827 13.2754 68.6493 13.165C69.2159 13.0655 69.7603 13.0103 70.2714 13.0103C70.8602 13.0103 71.4268 13.0766 71.9601 13.1981C72.4934 13.3196 72.9823 13.5185 73.4155 13.8057C73.8488 14.0819 74.2044 14.4465 74.4932 14.8884C74.7821 15.3303 74.9599 15.8716 75.0376 16.5014H72.4156C72.2934 15.9048 72.0268 15.496 71.5935 15.2972C71.1602 15.0873 70.6602 14.9878 70.1047 14.9878C69.927 14.9878 69.7159 14.9989 69.4715 15.032C69.227 15.0652 69.0048 15.1204 68.7826 15.1977C68.5715 15.2751 68.3938 15.3966 68.2382 15.5513C68.0938 15.7059 68.016 15.9048 68.016 16.1589C68.016 16.4682 68.1271 16.7113 68.3382 16.8991C68.5493 17.0869 68.8271 17.2415 69.1715 17.3741C69.5159 17.4956 69.9048 17.6061 70.3492 17.6945C70.7936 17.7829 71.2491 17.8823 71.7157 17.9817C72.1712 18.0812 72.6156 18.2137 73.06 18.3574C73.5044 18.501 73.8933 18.6998 74.2377 18.9539C74.5821 19.208 74.8599 19.5174 75.071 19.893C75.282 20.2686 75.3931 20.7436 75.3931 21.296C75.3931 21.9699 75.2376 22.5334 74.9265 23.0084C74.6154 23.4724 74.2155 23.8591 73.7266 24.1463C73.2378 24.4336 72.6823 24.6545 72.0823 24.7871C71.4824 24.9197 70.8824 24.9859 70.2936 24.9859C69.5715 24.9859 68.9049 24.9086 68.2938 24.7429C67.6827 24.5772 67.1495 24.3341 66.7051 24.0138C66.2606 23.6823 65.9051 23.2736 65.6496 22.7875C65.3941 22.3014 65.2607 21.7158 65.2385 21.0419H67.7716V21.0198V21.0198ZM76.0598 13.3196H77.9596V9.91695H80.4705V13.3196H82.7369V15.1867H80.4705V21.2408C80.4705 21.5059 80.4816 21.7269 80.5038 21.9257C80.526 22.1136 80.5816 22.2793 80.6593 22.4118C80.7371 22.5444 80.8593 22.6438 81.026 22.7101C81.1926 22.7764 81.4037 22.8096 81.6926 22.8096C81.8703 22.8096 82.0481 22.8096 82.2259 22.7985C82.4036 22.7875 82.5814 22.7654 82.7591 22.7212V24.6545C82.4814 24.6877 82.2036 24.7098 81.9481 24.7429C81.6815 24.776 81.4148 24.7871 81.1371 24.7871C80.4705 24.7871 79.9372 24.7208 79.5372 24.5993C79.1372 24.4778 78.8151 24.2899 78.5929 24.0469C78.3595 23.8038 78.2151 23.5056 78.1262 23.141C78.0485 22.7764 77.9929 22.3566 77.9818 21.8926V15.2088H76.082V13.3196H76.0598V13.3196ZM84.5145 13.3196H86.8921V14.8553H86.9365C87.2921 14.1924 87.7809 13.7284 88.4142 13.4412C89.0475 13.1539 89.7252 13.0103 90.4696 13.0103C91.3695 13.0103 92.1472 13.165 92.8138 13.4853C93.4804 13.7947 94.0359 14.2255 94.4803 14.7779C94.9247 15.3303 95.2469 15.9711 95.4691 16.7002C95.6913 17.4294 95.8024 18.2137 95.8024 19.0423C95.8024 19.8046 95.7024 20.5448 95.5024 21.2518C95.3024 21.9699 95.0025 22.5996 94.6025 23.152C94.2025 23.7044 93.6915 24.1353 93.0693 24.4667C92.4472 24.7981 91.725 24.9638 90.8806 24.9638C90.514 24.9638 90.1474 24.9307 89.7807 24.8644C89.4141 24.7981 89.0586 24.6877 88.7253 24.544C88.392 24.4004 88.0698 24.2126 87.792 23.9806C87.5032 23.7486 87.2698 23.4835 87.0699 23.1852H87.0254V28.8416H84.5145V13.3196V13.3196ZM93.2915 18.9981C93.2915 18.4899 93.2249 17.9928 93.0915 17.5067C92.9582 17.0206 92.7582 16.6008 92.4916 16.2252C92.225 15.8495 91.8917 15.5513 91.5028 15.3303C91.1028 15.1093 90.6473 14.9878 90.1363 14.9878C89.0808 14.9878 88.2809 15.3524 87.7476 16.0815C87.2143 16.8107 86.9477 17.7829 86.9477 18.9981C86.9477 19.5726 87.0143 20.1029 87.1587 20.589C87.3032 21.0751 87.5032 21.4949 87.792 21.8484C88.0698 22.2019 88.4031 22.4781 88.7919 22.677C89.1808 22.8869 89.6363 22.9863 90.1474 22.9863C90.7251 22.9863 91.2028 22.8648 91.6028 22.6328C92.0028 22.4008 92.3249 22.0915 92.5805 21.7269C92.836 21.3513 93.0249 20.9315 93.136 20.4564C93.236 19.9814 93.2915 19.4953 93.2915 18.9981V18.9981ZM97.7245 9H100.235V11.3642H97.7245V9V9ZM97.7245 13.3196H100.235V24.6545H97.7245V13.3196V13.3196ZM102.48 9H104.99V24.6545H102.48V9V9ZM112.69 24.9638C111.779 24.9638 110.968 24.8092 110.257 24.5109C109.546 24.2126 108.946 23.7928 108.446 23.2736C107.957 22.7433 107.579 22.1136 107.324 21.3844C107.068 20.6553 106.935 19.8488 106.935 18.976C106.935 18.1143 107.068 17.3189 107.324 16.5897C107.579 15.8606 107.957 15.2309 108.446 14.7006C108.935 14.1703 109.546 13.7615 110.257 13.4632C110.968 13.165 111.779 13.0103 112.69 13.0103C113.601 13.0103 114.412 13.165 115.123 13.4632C115.834 13.7615 116.434 14.1813 116.934 14.7006C117.423 15.2309 117.8 15.8606 118.056 16.5897C118.311 17.3189 118.445 18.1143 118.445 18.976C118.445 19.8488 118.311 20.6553 118.056 21.3844C117.8 22.1136 117.423 22.7433 116.934 23.2736C116.445 23.8038 115.834 24.2126 115.123 24.5109C114.412 24.8092 113.601 24.9638 112.69 24.9638ZM112.69 22.9863C113.245 22.9863 113.734 22.8648 114.145 22.6328C114.556 22.4008 114.89 22.0915 115.156 21.7158C115.423 21.3402 115.612 20.9094 115.745 20.4343C115.867 19.9593 115.934 19.4732 115.934 18.976C115.934 18.4899 115.867 18.0149 115.745 17.5288C115.623 17.0427 115.423 16.6229 115.156 16.2473C114.89 15.8716 114.556 15.5733 114.145 15.3413C113.734 15.1093 113.245 14.9878 112.69 14.9878C112.134 14.9878 111.645 15.1093 111.234 15.3413C110.823 15.5733 110.49 15.8827 110.223 16.2473C109.957 16.6229 109.768 17.0427 109.634 17.5288C109.512 18.0149 109.446 18.4899 109.446 18.976C109.446 19.4732 109.512 19.9593 109.634 20.4343C109.757 20.9094 109.957 21.3402 110.223 21.7158C110.49 22.0915 110.823 22.4008 111.234 22.6328C111.645 22.8758 112.134 22.9863 112.69 22.9863V22.9863ZM119.178 13.3196H121.078V9.91695H123.589V13.3196H125.855V15.1867H123.589V21.2408C123.589 21.5059 123.6 21.7269 123.622 21.9257C123.644 22.1136 123.7 22.2793 123.778 22.4118C123.855 22.5444 123.978 22.6438 124.144 22.7101C124.311 22.7764 124.522 22.8096 124.811 22.8096C124.989 22.8096 125.166 22.8096 125.344 22.7985C125.522 22.7875 125.7 22.7654 125.877 22.7212V24.6545C125.6 24.6877 125.322 24.7098 125.066 24.7429C124.8 24.776 124.533 24.7871 124.255 24.7871C123.589 24.7871 123.055 24.7208 122.656 24.5993C122.256 24.4778 121.933 24.2899 121.711 24.0469C121.478 23.8038 121.333 23.5056 121.245 23.141C121.167 22.7764 121.111 22.3566 121.1 21.8926V15.2088H119.2V13.3196H119.178V13.3196Z" fill="white"/>
<path d="M30.1417 11.07H18.6316L15.0764 0.177063L11.5101 11.07L0 11.059L9.32138 17.7981L5.75503 28.68L15.0764 21.952L24.3867 28.68L20.8314 17.7981L30.1417 11.07V11.07Z" fill="#00B67A"/>
<path d="M21.6314 20.2617L20.8314 17.7981L15.0764 21.952L21.6314 20.2617Z" fill="#005128"/>
</svg>
